<?xml version="1.0" encoding="utf-8"?>
<!-- Generator: Adobe Illustrator 24.1.1, SVG Export Plug-In . SVG Version: 6.00 Build 0)  -->
<svg version="1.1" id="Layer_1" xmlns="http://www.w3.org/2000/svg" xmlns:xlink="http://www.w3.org/1999/xlink" x="0px"
  y="0px" viewBox="0 0 512 512" style="enable-background:new 0 0 512 512;" xml:space="preserve">
  <style type="text/css">
    .st0 {
      fill: #2C3E50;
    }

    .st1 {
      fill: #34495E;
    }

    .st2 {
      fill: #C0392B;
    }

    .st3 {
      fill: #F1C40F;
    }

    .st4 {
      fill: #F39C12;
    }

    .st5 {
      fill: #7F8C8D;
    }

    .st6 {
      fill: #ECF0F1;
    }
  </style>
  <g id="XMLID_1_">
    <path id="XMLID_3_" class="st0" d="M255.9,95.7c-65.4,0-131.6,23.6-181.2,74.9C2.2,240.6-16.8,345.4,15.5,437.6h481.4
		c32.3-91.4,12.6-196.2-59.1-267.1C386.6,119.3,321.2,95.7,255.9,95.7L255.9,95.7z" />
    <path id="XMLID_4_" class="st1" d="M255.9,74.4c-65.4,0-131.6,23.6-181.2,74.9C2.2,219.4-16.8,324.2,15.5,416.3h481.4
		c32.3-91.4,12.6-196.2-59.1-267.1C387.4,98,321.2,74.4,255.9,74.4L255.9,74.4z" />
    <circle id="XMLID_5_" class="st0" cx="255.9" cy="351.7" r="42.5" />
    <polygon id="XMLID_6_" class="st2" points="422.1,164.2 270.8,344.6 240.9,314.7 	" />
    <path id="XMLID_7_" class="st0" d="M421.3,185.5h-0.8c-1.6,0-5.5,2.4-11,6.3L239.3,334.4h0.8l-44.9,44.9c-8.7,8.7-8.7,23.6,0,32.3
		c8.7,8.7,22.1,8.7,29.9,0l44.9-47.3l1.6,2.4l142.6-171C418.9,191,421.3,187.1,421.3,185.5L421.3,185.5z" />
    <path id="XMLID_8_" class="st3" d="M422.1,164.2h-0.8c-1.6,0-5.5,2.4-11,6.3l-171,142.6l1.6,2.4L196,360.4
		c-8.7,8.7-8.7,21.3,0,29.9c8.7,8.7,22.1,8.7,29.9,0l44.9-44.9l1.6,2.4l142.6-171C421.3,169.7,424.5,164.2,422.1,164.2L422.1,164.2z
		" />
    <circle id="XMLID_9_" class="st4" cx="255.9" cy="329.7" r="42.5" />
    <circle id="XMLID_10_" class="st0" cx="255.9" cy="329.7" r="21.3" />
    <path id="XMLID_11_" class="st0" d="M255.9,74.4c-65.4,0-131.6,23.6-181.2,74.9C20.3,202.8-4.2,275.3,0.6,345.4
		C1.4,281.6,25.8,217,74.6,170.5c49.6-51.2,115.8-74.9,181.2-74.9s131.6,23.6,181.2,74.9c48.8,47.3,73.3,111.1,74.1,174.9
		c4.7-70.1-19.7-142.6-74.1-196.2C387.4,98,321.2,74.4,255.9,74.4z" />
    <path id="XMLID_19_" class="st5" d="M255.9,116.9h-11v42.5h11h11v-42.5H255.9z M154.2,140.6c-6.3,3.9-12.6,8.7-18.9,11l21.3,38.6
		c6.3-3.9,12.6-8.7,18.9-11L154.2,140.6z M358.3,140.6L337,179.2c6.3,2.4,12.6,6.3,18.9,11l21.3-38.6
		C370.9,149.2,364.6,144.5,358.3,140.6z M67.5,219.4c-3.9,6.3-7.1,12.6-10.2,18.9l37,21.3c3.2-6.3,6.3-12.6,11-18.9L67.5,219.4z
		 M444.2,219.4l-37,21.3c3.9,6.3,7.1,12.6,11,18.9l37-21.3C451.3,232,448.1,225.7,444.2,219.4z M32.1,330.5c0,2.4-0.8,6.3-0.8,11
		c0,2.4,0.8,6.3,0.8,11h42.5c0-3.9-0.8-6.3-0.8-11c0-3.9,0.8-8.7,0.8-11H32.1z M436.3,330.5c0,2.4,0.8,6.3,0.8,11
		c0,2.4-0.8,6.3-0.8,11h42.5c0-3.9,0.8-6.3,0.8-11c0-3.9,0-8.7-0.8-11H436.3z" />
    <path id="XMLID_23_" class="st6" d="M255.9,116.9h-11v42.5h11h11v-42.5H255.9z M32.1,330.5c0,2.4-0.8,6.3-0.8,11
		c0,2.4,0.8,6.3,0.8,11h42.5c0-3.9-0.8-6.3-0.8-11c0-3.9,0.8-8.7,0.8-11H32.1z M436.3,330.5c0,2.4,0.8,6.3,0.8,11
		c0,2.4-0.8,6.3-0.8,11h42.5c0-3.9,0.8-6.3,0.8-11c0-3.9,0-8.7-0.8-11H436.3z" />
  </g>
</svg>